<?xml version="1.0" encoding="utf-8"?>
<!-- Generator: Adobe Illustrator 16.0.0, SVG Export Plug-In . SVG Version: 6.00 Build 0)  -->
<svg version="1.2" baseProfile="tiny" id="Layer_1" xmlns="http://www.w3.org/2000/svg" xmlns:xlink="http://www.w3.org/1999/xlink"
	 x="0px" y="0px" width="265px" height="84px" viewBox="139.5 96.5 265 84" xml:space="preserve">
<text transform="matrix(1 0 0 1 153.5 160.9219)" font-family="'AmericanTypewriter'" font-size="72">C     kie</text>
<path d="M234.818,121.637c-3.482-1.483-8.32-4.383-13.304-4.383c-3.487,0-6.321,2.039-9.504,2.785
	c-8.338,1.957-11.674,10.753-12.869,19.586c-0.394,2.921,0.571,5.761,1.606,8.337c1.306,3.252,3.776,5.606,5.933,8.412
	c3.216,4.183,9.164,5.133,14.834,5.624c11.545,1.002,13.609-4.116,20.081-12.501c2.028-2.627,2.032-6.338,2.29-9.872
	C244.448,131.943,239.798,123.761,234.818,121.637z M219.451,121.001l5.067,5.006l-2.413,1.178l-3.74-4.192L219.451,121.001z
	 M219.238,132.156l3.189,0.644l1.312,2.187l-1.75,2.058l-4.002-2.058L219.238,132.156z M206.34,145.249l-3.316-3.288l2.013-1.985
	l2.548,2.382L206.34,145.249z M207.583,130.103l2.933-2.817l2.762,2.012l-0.69,3.106h-2.99L207.583,130.103z M212.346,146.555
	l1.766-2.445l4.297-0.938l1.472,4.387l-4.769,1.191L212.346,146.555z M223.473,158.377l-4.504-1.723l0.433-3.685l4.134,2.199
	l2.222,0.801L223.473,158.377z M235.076,152.081l-2.479,0.25l-0.579-2.507l2.726-1.69l1.489,1.128L235.076,152.081z
	 M234.936,143.744l-5.332-1.911l1.658-4.037l6.222,2.001L234.936,143.744z M236.416,132.328l-4.396-1.866v-3.177l4.131,0.623
	l1.333,2.554L236.416,132.328z"/>
<path d="M281.698,121.637c-3.482-1.483-8.32-4.383-13.304-4.383c-3.487,0-6.321,2.039-9.504,2.785
	c-8.338,1.957-11.674,10.753-12.869,19.586c-0.394,2.921,0.571,5.761,1.606,8.337c1.306,3.252,3.776,5.606,5.933,8.412
	c3.216,4.183,9.164,5.133,14.834,5.624c11.545,1.002,13.609-4.116,20.081-12.501c2.028-2.627,2.032-6.338,2.29-9.872
	C291.328,131.943,286.678,123.761,281.698,121.637z M266.331,121.001l5.067,5.006l-2.413,1.178l-3.74-4.192L266.331,121.001z
	 M266.118,132.156l3.189,0.644l1.312,2.187l-1.75,2.058l-4.002-2.058L266.118,132.156z M253.22,145.249l-3.316-3.288l2.013-1.985
	l2.548,2.382L253.22,145.249z M254.463,130.103l2.933-2.817l2.762,2.012l-0.69,3.106h-2.99L254.463,130.103z M259.226,146.555
	l1.766-2.445l4.297-0.938l1.472,4.387l-4.769,1.191L259.226,146.555z M270.353,158.377l-4.504-1.723l0.433-3.685l4.134,2.199
	l2.222,0.801L270.353,158.377z M281.956,152.081l-2.479,0.25l-0.579-2.507l2.726-1.69l1.489,1.128L281.956,152.081z
	 M281.815,143.744l-5.332-1.911l1.658-4.037l6.222,2.001L281.815,143.744z M283.296,132.328l-4.396-1.866v-3.177l4.131,0.623
	l1.333,2.554L283.296,132.328z"/>
</svg>
