<?xml version="1.0" encoding="utf-8"?>
<!DOCTYPE svg PUBLIC "-//W3C//DTD SVG 1.1//EN" "http://www.w3.org/Graphics/SVG/1.1/DTD/svg11.dtd">
<svg version="1.1" xmlns="http://www.w3.org/2000/svg" xmlns:xlink="http://www.w3.org/1999/xlink" x="0px" y="0px"
	 width="300px" height="100px" viewBox="-17.5 -8 300 100" enable-background="new -17.5 -8 300 100" xml:space="preserve">
<text transform="matrix(1 0 0 1 -11.5 70.9219)" font-family="'AmericanTypeMedium'" font-size="72">C     kie</text>
<path d="M75.259,32.436c-3.482-1.482-8.32-4.383-13.305-4.383c-3.486,0-6.32,2.039-9.504,2.785
	c-8.338,1.957-11.674,10.753-12.869,19.586c-0.394,2.921,0.571,5.762,1.606,8.337c1.306,3.252,3.776,5.606,5.933,8.412
	c3.217,4.183,9.164,5.133,14.834,5.624c11.545,1.002,13.609-4.116,20.082-12.501c2.027-2.627,2.031-6.338,2.289-9.872
	C84.888,42.742,80.238,34.561,75.259,32.436z M59.892,31.8l5.066,5.006l-2.412,1.179l-3.74-4.192L59.892,31.8z M59.679,42.955
	l3.189,0.644l1.311,2.187l-1.75,2.059l-4.002-2.059L59.679,42.955z M46.78,56.048l-3.316-3.288l2.014-1.984l2.548,2.381
	L46.78,56.048z M48.023,40.902l2.933-2.817l2.762,2.012l-0.689,3.106h-2.99L48.023,40.902z M52.786,57.354l1.766-2.445l4.298-0.938
	l1.472,4.387l-4.77,1.191L52.786,57.354z M63.913,69.176l-4.504-1.723l0.434-3.686l4.134,2.199l2.222,0.801L63.913,69.176z
	 M75.517,62.88l-2.479,0.25l-0.58-2.507l2.727-1.69l1.488,1.128L75.517,62.88z M75.376,54.543l-5.332-1.911l1.658-4.037l6.223,2.001
	L75.376,54.543z M76.856,43.127l-4.396-1.866v-3.177l4.131,0.623l1.334,2.554L76.856,43.127z"/>
<path d="M123.197,32.436c-3.481-1.482-8.319-4.383-13.303-4.383c-3.487,0-6.322,2.039-9.504,2.785
	c-8.338,1.957-11.675,10.753-12.869,19.586c-0.395,2.921,0.57,5.762,1.605,8.337c1.307,3.252,3.775,5.606,5.934,8.412
	c3.215,4.183,9.164,5.133,14.834,5.624c11.545,1.002,13.608-4.116,20.08-12.501c2.028-2.627,2.032-6.338,2.291-9.872
	C132.828,42.742,128.178,34.561,123.197,32.436z M107.831,31.8l5.067,5.006l-2.414,1.179l-3.739-4.192L107.831,31.8z
	 M107.618,42.955l3.188,0.644l1.313,2.187l-1.75,2.059l-4.002-2.059L107.618,42.955z M94.721,56.048l-3.316-3.288l2.013-1.984
	l2.548,2.381L94.721,56.048z M95.963,40.902l2.934-2.817l2.762,2.012l-0.69,3.106h-2.989L95.963,40.902z M100.727,57.354
	l1.766-2.445l4.297-0.938l1.473,4.387l-4.77,1.191L100.727,57.354z M111.854,69.176l-4.504-1.723l0.433-3.686l4.134,2.199
	l2.223,0.801L111.854,69.176z M123.456,62.88l-2.479,0.25l-0.578-2.507l2.726-1.69l1.489,1.128L123.456,62.88z M123.314,54.543
	l-5.332-1.911l1.658-4.037l6.223,2.001L123.314,54.543z M124.796,43.127l-4.396-1.866v-3.177l4.131,0.623l1.332,2.554
	L124.796,43.127z"/>
</svg>
